<svg xmlns="http://www.w3.org/2000/svg" width="69.3" height="47" viewBox="0 0 69.3 47"><path fill="#444" d="M1.1 25C.5 25 0 24.5 0 23.9v-.7c0-.7.5-1.2 1.1-1.2s1.1.5 1.1 1.1v.7c0 .7-.5 1.2-1.1 1.2zM5.6 24.6c-.3 0-.6-.1-.8-.3-.2-.2-.3-.5-.3-.8 0-.3.1-.6.3-.8.4-.4 1.2-.4 1.6 0 .2.2.3.5.3.8 0 .3-.1.6-.3.8-.2.2-.5.3-.8.3zM10.1 35.8c-.6 0-1.1-.5-1.1-1.1V12.3c0-.6.5-1.1 1.1-1.1s1.1.5 1.1 1.1v22.4c0 .6-.5 1.1-1.1 1.1zM19 43.3c-.6 0-1.1-.5-1.1-1.1V4.8c0-.6.5-1.1 1.1-1.1s1.1.5 1.1 1.1v37.3c0 .6-.5 1.2-1.1 1.2zM14.5 47c-.6 0-1.1-.5-1.1-1.1V1.1c0-.6.6-1.1 1.1-1.1s1.1.5 1.1 1.1v44.8c.1.6-.5 1.1-1.1 1.1zM23.5 37.3c-.6 0-1.1-.5-1.1-1.1V10.8c0-.6.5-1.1 1.1-1.1s1.1.5 1.1 1.1v25.4c0 .6-.5 1.1-1.1 1.1zM28 31.7c-.6 0-1.1-.5-1.1-1.1V16.4c0-.6.5-1.1 1.1-1.1s1.1.5 1.1 1.1v14.2c0 .6-.5 1.1-1.1 1.1zM32.5 28c-.6 0-1.1-.5-1.1-1.1v-6.7c0-.6.5-1.1 1.1-1.1s1.1.5 1.1 1.1v6.7c0 .6-.6 1.1-1.1 1.1zM36.9 29.8c-.6 0-1.1-.5-1.1-1.1V18.3c0-.6.5-1.1 1.1-1.1s1.1.5 1.1 1.1v10.4c0 .6-.5 1.1-1.1 1.1zM41.4 26.9c-.6 0-1.1-.5-1.1-1.1v-4.5c0-.6.5-1.1 1.1-1.1s1.1.5 1.1 1.1v4.5c0 .5-.5 1.1-1.1 1.1zM45.9 25.7c-.6 0-1.1-.5-1.1-1.1v-2.2c0-.6.5-1.1 1.1-1.1.6 0 1.1.5 1.1 1.1v2.2c0 .6-.5 1.1-1.1 1.1zM50.4 24.6c-.3 0-.6-.1-.8-.3-.1-.1-.1-.2-.2-.4-.1-.1-.1-.3-.1-.4v-.2s0-.1.1-.2c0-.1.1-.1.1-.2l.1-.1.1-.1c.1-.1.1-.1.2-.1s.1-.1.2-.1h.4c.1 0 .1 0 .2.1.1 0 .1.1.2.1l.1.1.1.1c0 .1.1.1.1.2s.1.1.1.2v.2c0 .1 0 .3-.1.4-.1.1-.1.3-.2.4-.1.1-.2.1-.4.2.1.1-.1.1-.2.1zM54.8 25c-.6 0-1.1-.5-1.1-1.1v-.7c0-.6.5-1.1 1.1-1.1.6 0 1.1.5 1.1 1.1v.7c.1.6-.5 1.1-1.1 1.1zM63.8 25c-.6 0-1.1-.5-1.1-1.1v-.7c0-.6.5-1.1 1.1-1.1.6 0 1.1.5 1.1 1.1v.7c0 .6-.5 1.1-1.1 1.1zM59.3 24.6c-.3 0-.6-.1-.8-.3-.2-.2-.3-.5-.3-.8v-.2s0-.1.1-.2c0-.1.1-.1.1-.2l.1-.1c.3-.3.7-.4 1-.3.1 0 .1 0 .2.1.1 0 .1.1.2.1l.1.1c.2.2.3.5.3.8s-.1.6-.3.8c-.1.1-.2.1-.4.2h-.3zM68.3 24.6c-.3 0-.6-.1-.8-.3-.1-.1-.1-.2-.2-.4-.1-.1-.1-.3-.1-.4 0-.3.1-.6.3-.8.4-.4 1.2-.4 1.6 0 .2.2.3.5.3.8 0 .1 0 .3-.1.4-.1.1-.1.3-.2.4-.2.2-.5.3-.8.3z"/></svg>