<svg xmlns="http://www.w3.org/2000/svg" width="26" height="26" pxviewBox="0 0 26 26"><path fill="#525252" fill-rule="evenodd" d="M13 0a13 13 0 0 0-4.11 25.34c.65.11.89-.29.89-.63l-.02-2.21c-3.62.78-4.38-1.74-4.38-1.74-.59-1.5-1.44-1.9-1.44-1.9-1.18-.81.09-.8.09-.8 1.3.1 1.99 1.34 1.99 1.34 1.16 1.99 3.04 1.42 3.78 1.08.12-.84.46-1.41.83-1.73-2.89-.33-5.92-1.45-5.92-6.43 0-1.42.5-2.58 1.33-3.49a4.67 4.67 0 0 1 .13-3.44s1.1-.35 3.58 1.33a12.45 12.45 0 0 1 6.5 0c2.49-1.68 3.58-1.33 3.58-1.33.7 1.8.26 3.11.13 3.44.83.91 1.33 2.07 1.33 3.49 0 5-3.04 6.1-5.93 6.42.46.4.88 1.19.88 2.4l-.02 3.57c0 .35.24.75.9.62A13 13 0 0 0 13 0"/></svg>