<svg xmlns="http://www.w3.org/2000/svg" width="26" height="22" viewBox="0 0 26 22"><path fill="#525252" fill-rule="evenodd" d="M22.94 3.48A5.52 5.52 0 0 0 25.28.4c-1.03.63-2.17 1.1-3.39 1.34A5.22 5.22 0 0 0 18 0a5.45 5.45 0 0 0-5.33 5.55c0 .44.04.86.13 1.27a14.95 14.95 0 0 1-10.99-5.8 5.72 5.72 0 0 0 1.65 7.41 5.2 5.2 0 0 1-2.42-.7v.08a5.5 5.5 0 0 0 4.28 5.44 5.03 5.03 0 0 1-2.4.1A5.37 5.37 0 0 0 7.9 17.2 10.44 10.44 0 0 1 0 19.5 14.68 14.68 0 0 0 8.18 22c9.81 0 15.17-8.46 15.17-15.8l-.01-.72A11.06 11.06 0 0 0 26 2.6c-.96.45-1.99.74-3.06.88z"/></svg>