<svg xmlns="http://www.w3.org/2000/svg" viewBox="0 0 30 30" width="30" height="30">
    <g>
        <path fill="#C0DCF5" fill-rule="nonzero" d="M15 30a15 15 0 1 1 0-30 15 15 0 0 1 0 30zM8.37 17.6c.2 2.19.63 4.2 1.24 5.9 1.56-.6 3.25-.95 5.02-1v-2.27c.35.63.6 1.06.74 1.27v1c1.77.05 3.46.4 5.02 1 .25-.7.47-1.45.66-2.24l.84-.3c-.22 1-.5 1.95-.81 2.82a15 15 0 0 1 3.26 1.98 14.22 14.22 0 0 0 4.9-10.39h-3.96c.1-.23.15-.48.13-.74h3.84a14.22 14.22 0 0 0-4.91-10.4 15 15 0 0 1-3.26 1.99c.47 1.29.83 2.73 1.08 4.29a1.8 1.8 0 0 0-.79-.16c-.23-1.4-.57-2.69-.98-3.85-1.56.6-3.25.95-5.02 1v6.56l-.74-1.25V7.5c-1.77-.05-3.46-.4-5.02-1-.12.35-.24.7-.34 1.07l-.8.06c.13-.49.29-.96.45-1.41a15 15 0 0 1-3.26-1.98 14.22 14.22 0 0 0-4.9 10.38h6.23l.34.76H.75c.11 4.14 1.99 7.85 4.91 10.38a15 15 0 0 1 3.26-1.98 25.79 25.79 0 0 1-1.41-8.02l.86 1.85zm1.51 6.6c1.18 2.9 2.9 4.8 4.74 5.03v-5.98a14.2 14.2 0 0 0-4.74.95zm10.24 0a14.2 14.2 0 0 0-4.75-.95v5.98c1.86-.23 3.57-2.13 4.75-5.03zM6.25 26.25a14.19 14.19 0 0 0 6.04 2.74 10.84 10.84 0 0 1-3.1-4.5 14.25 14.25 0 0 0-2.94 1.76zm17.5 0c-.9-.7-1.89-1.3-2.94-1.77-.81 2-1.88 3.57-3.1 4.51 2.24-.43 4.3-1.39 6.04-2.74zM9.88 5.8c1.48.57 3.08.9 4.74.95V.77C12.78 1 11.06 2.9 9.88 5.8zm10.24 0C18.94 2.9 17.22 1 15.37.77v5.98a14.2 14.2 0 0 0 4.75-.95zM6.25 3.75c.9.7 1.89 1.3 2.94 1.77.81-2 1.88-3.57 3.1-4.51-2.24.43-4.3 1.39-6.04 2.74zm17.5 0a14.19 14.19 0 0 0-6.04-2.74c1.22.94 2.29 2.51 3.1 4.5a14.25 14.25 0 0 0 2.94-1.76z" opacity=".5"></path>
        <path fill="#FFFFFF" d="M22.9 14.48l-2.01.5-1.56-2.14c-.04-.06-.08-.12.03-.14l1.96-.35c.07-.02.14-.04.24.1l1.5 1.9c.04.06-.04.1-.16.13m-.33 3.67c.05.07.1.12-.05.18l-5.13 1.74c-.1.04-.17.05-.3-.12a233.1 233.1 0 0 1-1.7-2.93l5.17-1.35c.15-.04.2-.03.25.07l1.76 2.4m-8.38-1.56l-3.2.76c-.15.04-.15.02-.17-.04L7.24 9.9c-.05-.08-.05-.15 0-.15l2.9-.26c.1 0 .09.02.12.08l3.97 6.84c.06.12.1.14-.04.17m9.65-1.97c-.12-.13-1.72-2.14-2-2.48-.29-.34-.43-.28-.6-.26l-2.44.4c-.24.05-.39.14-.24.35l1.76 2.49-5.3 1.27-4.23-7.06c-.17-.25-.2-.34-.58-.32-.39.02-3.32.26-3.52.28-.21.02-.44.11-.23.6.2.5 3.53 7.66 3.62 7.87.1.2.34.55.9.41l3.68-.95a96.52 96.52 0 0 0 1.98 3.48c.29.4.49.34.94.2.35-.1 5.46-1.94 5.7-2.04.23-.1.37-.16.21-.39-.11-.17-1.46-1.98-2.17-2.92l2.39-.64c.21-.06.24-.16.13-.3"></path>
    </g>
</svg>