<svg xmlns="http://www.w3.org/2000/svg" width="48" height="48"><defs><linearGradient id="a" x1="50%" x2="50%" y1="0%" y2="100%"><stop stop-color="#C7CECB" offset="0%"/><stop stop-color="#9CA5A0" offset="100%"/></linearGradient></defs><path fill="url(#a)" fill-rule="evenodd" d="M35 25l-3-3v6l3 3v2l-3-3v6l3 3v4h2V19l-1.5-1.5L32 14v6l3 3v2zM9 25l-3-3v6l3 3v2l-3-3v6l3 3v4h2V19l-1.5-1.5L6 14v6l3 3v2zm13 0l-3-3v6l3 3v2l-3-3v6l3 3v4h2V11l-1.5-1.5L19 6v6l3 3v2l-3-3v6l3 3v2zm3 1l4-4v6l-4 4v-6zm0 8l4-4v6l-4 4v-6zm0-16l4-4v6l-4 4v-6zm0-8l4-4v6l-4 4v-6zM12 26l4-4v6l-4 4v-6zm0 8l4-4v6l-4 4v-6zm0-16l4-4v6l-4 4v-6zm26 8l4-4v6l-4 4v-6zm0 8l4-4v6l-4 4v-6zm0-16l4-4v6l-4 4v-6z"/></svg>