<svg xmlns="http://www.w3.org/2000/svg" width="48" height="48"><defs><linearGradient id="a" x1="50%" x2="50%" y1="0%" y2="100%"><stop stop-color="#C7CECB" offset="0%"/><stop stop-color="#9CA5A0" offset="100%"/></linearGradient></defs><path fill="url(#a)" fill-rule="evenodd" d="M24.88 9l7.5 15-7.5 15h-3.76l7.5-15-7.5-15h3.76zm2.24 0H41a3 3 0 0 1 3 3v24a3 3 0 0 1-3 3H27.12l7.5-15-7.5-15zm-8.24 0l7.5 15-7.5 15h-3.76l7.5-15-7.5-15h3.76zm-6 0l7.5 15-7.5 15H7a3 3 0 0 1-3-3V12a3 3 0 0 1 3-3h5.88z"/></svg>