<svg xmlns="http://www.w3.org/2000/svg" width="48" height="48"><defs><linearGradient id="a" x1="50%" x2="50%" y1="0%" y2="100%"><stop stop-color="#C7CECB" offset="0%"/><stop stop-color="#9CA5A0" offset="100%"/></linearGradient><linearGradient id="b" x1="50%" x2="50%" y1="0%" y2="100%"><stop stop-color="#939B97" offset="0%"/><stop stop-color="#5C6460" offset="100%"/></linearGradient></defs><path fill="url(#a)" d="M20.02 10a7 7 0 1 0 13.97.05A2.5 2.5 0 0 1 36 12.5v16a2.5 2.5 0 0 1-2.5 2.5h-31A2.5 2.5 0 0 1 0 28.5v-16A2.5 2.5 0 0 1 2.5 10h17.52zM18 26.5a6 6 0 1 0 0-12 6 6 0 0 0 0 12z" transform="translate(2 8)"/><path fill="url(#b)" d="M9 2.5A2.5 2.5 0 0 1 11.5 0h31A2.5 2.5 0 0 1 45 2.5v16a2.5 2.5 0 0 1-2.5 2.5h-31A2.5 2.5 0 0 1 9 18.5v-16zm18 14a6 6 0 1 0 0-12 6 6 0 0 0 0 12z" transform="translate(2 8)"/></svg>