<svg xmlns="http://www.w3.org/2000/svg" width="48" height="48"><defs><linearGradient id="a" x1="50%" x2="50%" y1="0%" y2="100%"><stop stop-color="#C7CECB" offset="0%"/><stop stop-color="#9CA5A0" offset="100%"/></linearGradient></defs><path fill="url(#a)" fill-rule="evenodd" d="M24 44a20 20 0 1 1 0-40 20 20 0 0 1 0 40zm12.37-7.63a17.5 17.5 0 1 0-24.74-24.74 17.5 17.5 0 0 0 24.74 24.74zm-16.6 1.64a7.5 7.5 0 1 0-9.79-9.79 10.5 10.5 0 1 1 9.79 9.79zm4.32 1.49A12.5 12.5 0 1 0 8.5 23.9a15.5 15.5 0 1 1 15.6 15.6zm-3.27-4.54a5.5 5.5 0 1 1-7.78-7.78 5.5 5.5 0 0 1 7.78 7.78z"/></svg>