<svg version="1.1"
	 xmlns="http://www.w3.org/2000/svg" xmlns:xlink="http://www.w3.org/1999/xlink" xmlns:a="http://ns.adobe.com/AdobeSVGViewerExtensions/3.0/"
	 x="0px" y="0px" width="694.1px" height="384px" viewBox="0 0 694.1 384" enable-background="new 0 0 694.1 384"
	 xml:space="preserve">
<defs>
</defs>
<g id="macbook" transform="translate(1.000000, 1.000000)" sketch:type="MSLayerGroup">
	<path id="body-top" sketch:type="MSShapeGroup" fill="#FEFEFE" stroke="#8492A5" stroke-width="2" d="M594,0H98
		C84.5,0,73,11.1,73,24.8V351h546V24.8C619,11.1,607.5,0,594,0z"/>
	<circle id="webcam" sketch:type="MSShapeGroup" fill="none" stroke="#8492A5" stroke-width="2" cx="347" cy="19" r="4">
	</circle>
	<g id="body-bottom-group" transform="translate(0.000000, 351.000000)" sketch:type="MSShapeGroup">
		<path id="body-bottom" fill="#FDFDFD" stroke="#8492A5" stroke-width="2" d="M640.8,31H51.3C20.6,31,0,20.5,0,16V2.4C0,1.1,1.3,0,3,0
			h686.1c1.7,0,3,1.1,3,2.4v14.1C692.1,20.1,676.1,31,640.8,31z"/>
		<path id="bottom-seam" fill="none" stroke="#8492A5" stroke-linecap="square" d="M0.5,14.5h689.7"/>
	</g>
	<rect id="screen" x="95" y="39" sketch:type="MSShapeGroup" fill="#FFFFFF" stroke="#8492A5" width="501.1" height="292">
	</rect>
	<path id="touchpad" sketch:type="MSShapeGroup" fill="#FFFFFF" stroke="#8492A5" d="M421,352v3.1c0,2.2-4.3,2.9-7.6,2.9H278.8
		c-3.5,0-7.8-0.7-7.8-2.9V352"/>
</g>
</svg>
