<svg xmlns="http://www.w3.org/2000/svg" width="15.7" height="18" viewBox="0 0 15.7 18"><g fill="#7F7F7F"><path d="M15.7 4.7c0-.2-.1-.3-.3-.4L8.1.1C8 0 7.8 0 7.6.1L.3 4.3c-.2.1-.3.3-.3.4v8.5c0 .2.1.4.3.5l7.3 4.2h.2l.2.1h.1l7.3-4.2c.2-.1.3-.3.3-.5V4.7c0 .1 0 .1 0 0zM7.9 1.2l6.3 3.6-6.3 3.6-6.3-3.6 6.3-3.6zM1.1 5.7l5.8 3.4h-.1l-.6.4c-.1 0-.1.2-.1.2 0 .1.1.1.2.1h.1l.6-.4c.1 0 .1-.1.1-.2l.2.1v7.2l-6.2-3.6V5.7zm7.3 10.8V9.3l.2-.1c0 .1 0 .2.1.2l.6.4h.1c.1 0 .1 0 .2-.1 0-.1 0-.2-.1-.2l-.6-.4h-.1l5.8-3.4v7.2l-6.2 3.6z"/><path d="M13.1 11.6l-.6-.4c-.1-.1-.2 0-.2.1s0 .2.1.2l.6.4h.1c.1 0 .1 0 .2-.1 0 0-.1-.2-.2-.2zM14.4 12.3l-.6-.4c-.1-.1-.2 0-.2.1s0 .2.1.2l.6.4h.1c.1 0 .1 0 .2-.1-.1 0-.2-.2-.2-.2zM11.9 10.9l-.6-.4c-.1-.1-.2 0-.2.1s0 .2.1.2l.6.4h.1c.1 0 .1 0 .2-.1-.1 0-.1-.2-.2-.2zM10.7 10.2l-.6-.4c-.1-.1-.2 0-.2.1s0 .2.1.2l.6.4h.1c.1 0 .1 0 .2-.1-.1-.1-.1-.2-.2-.2zM2 11.9l-.6.4c-.1 0-.1.2-.1.2 0 .1.1.1.2.1h.1l.6-.4c.1 0 .1-.2.1-.2-.1-.1-.2-.1-.3-.1zM5.6 9.8l-.6.4c-.1 0-.1.2-.1.2 0 .1.1.1.2.1h.1l.6-.4c.1 0 .1-.2.1-.2-.1-.1-.2-.1-.3-.1zM3.2 11.2l-.6.4c-.1 0-.1.2-.1.2 0 .1.1.1.2.1h.1l.6-.4c.1 0 .1-.2.1-.2-.1-.1-.2-.1-.3-.1zM4.4 10.5l-.6.4c-.1 0-.1.2-.1.2 0 .1.1.1.2.1H4l.6-.4c.1 0 .1-.2.1-.2-.1-.1-.2-.1-.3-.1z"/></g></svg>