<svg xmlns="http://www.w3.org/2000/svg" width="35.2" height="48" viewBox="0 0 35.2 48"><path fill="#444" d="M31.9 5V4c0-2.2-1.7-4-3.7-4H28L.8 4.9c-.1 0-.1 0-.1.1H.6.5s0 .1-.1.1l-.1.1-.1.1c0 .1-.1.1-.1.1 0 .1-.1.1-.1.1 0 .1 0 .1-.1.1 0 .1 0 .1-.1.1V47c0 .6.5 1 1 1H31c2.2 0 4-1.8 4-4V8.9c.1-1.9-1.3-3.6-3.1-3.9zm-3.7-3c.9.1 1.6.9 1.6 2v.9H12.3L28.2 2zm4.9 42c0 1.1-.9 2-2 2H1.9V7h29.2c1.1 0 2 .9 2 2v35z"/><path fill="#444" d="M24.2 13.8l-.2-.2c-1.7-1.4-3.8-2.3-6.2-2.3h-.4c-2.5 0-4.8.9-6.5 2.3l-.2.2c-2.1 1.9-3.5 4.6-3.5 7.7 0 3 1.3 5.8 3.5 7.6 0 0 0 .1.1.1.1.1.2.2.3.2 1.8 1.4 4 2.3 6.5 2.3h.4c2.3-.1 4.4-.9 6.1-2.3.1-.1.2-.1.3-.2 0 0 0-.1.1-.1 2.1-1.9 3.5-4.6 3.5-7.6-.3-3.1-1.6-5.9-3.8-7.7zm-.3 6.6c-.1-1.6-.4-3.1-.9-4.4.1-.1.3-.2.4-.2 1.2 1.2 2 2.8 2.2 4.6h-1.7zm-3.6-5.3c-.6.2-1.1.3-1.8.4v-2c.7.3 1.3.9 1.8 1.6zm-3.8-1.5v1.9c-.5-.1-1.1-.2-1.5-.4.4-.6.9-1.2 1.5-1.5zm0 4v2.8h-3.1c.1-1.2.3-2.4.7-3.4.7.3 1.5.5 2.4.6zm0 4.9v2.9c-.9.1-1.7.3-2.5.5-.4-1-.6-2.2-.7-3.4h3.2zm0 4.9v1.9c-.6-.3-1.1-.8-1.5-1.5.4-.2 1-.3 1.5-.4zm2 2v-2c.6.1 1.2.2 1.7.4-.4.8-1 1.4-1.7 1.6zm0-4v-2.9h3.4c-.1 1.3-.3 2.5-.7 3.5-.9-.4-1.8-.6-2.7-.6zm0-5v-2.8c.9-.1 1.8-.3 2.6-.6.4 1 .6 2.2.7 3.5h-3.3zm-6.9-4.6c.2.1.4.2.5.3-.5 1.3-.8 2.7-.9 4.3H9.5c.2-1.8 1-3.4 2.1-4.6zm-2.1 6.7h1.9c.1 1.6.4 3 .9 4.3-.2.1-.4.2-.5.3-1.3-1.2-2.1-2.8-2.3-4.6zm13.8 4.6c-.1-.1-.2-.1-.3-.2.5-1.3.9-2.8.9-4.4h1.7c-.2 1.8-1 3.4-2.3 4.6zM22.1 34.4h-9.2c-.6 0-1 .5-1 1v5.2c0 .6.5 1 1 1h9.2c.6 0 1-.5 1-1v-5.2c0-.5-.4-1-1-1zM18 36.5v3.2h-1v-3.2h1zm-4.1 0h1v3.2h-1v-3.2zm7.2 3.1h-1v-3.2h1v3.2z"/></svg>