<svg xmlns="http://www.w3.org/2000/svg" width="40" height="40" viewBox="0 0 40 40"><path fill="#FFF" d="M4.1 40H36c2.2 0 4.1-1.8 4.1-4.1V4.1C40 1.8 38.2 0 35.9 0H4.1C1.8 0 0 1.8 0 4.1V36c0 2.2 1.8 4 4.1 4zM32.6 5.6h3.5v3.5h-3.5V5.6zm0 6.3h3.5v3.5h-3.5v-3.5zm0 6.4h3.5v3.5h-3.5v-3.5zm0 6.3h3.5v3.5h-3.5v-3.5zm0 6.3h3.5v3.5h-3.5v-3.5zm-20-18.6c0-.9.9-1.4 1.7-1L27.7 19c.7.4.7 1.5 0 2l-13.3 7.7c-.7.4-1.7-.1-1.7-1V12.3zM3.9 5.6h3.5v3.5H3.9V5.6zm0 6.3h3.5v3.5H3.9v-3.5zm0 6.4h3.5v3.5H3.9v-3.5zm0 6.3h3.5v3.5H3.9v-3.5zm0 6.3h3.5v3.5H3.9v-3.5z"/></svg>