<svg xmlns="http://www.w3.org/2000/svg" width="26.2" height="50" viewBox="0 0 26.2 50"><path fill="#444" d="M15.3 0c-1.5 0-3.1 1.7-3.6 2.9-.5-.4-1-.6-1.6-.6C8.6 2.3 7.4 4 7 5.1c-.1.3-.2.6-.2.9v2c0 .3 0 .7.1 1.1-.2.3-.2.7-.2 1l-.1 4.4v.3c0 .2-.1.5 0 .8-.3.5-.3 1.1-.3 1.7v.5L5.8 23c-.5-.5-1.1-.8-1.8-.9-.6-.1-1.1-.1-1.7 0l-.4.1c-.7.2-1.3.9-1.7 1.8-.3 1-.4 2.1-.1 3.1l.4.9c-.6 1.6-.3 3.4 0 5.2.2 1 .3 2.1.3 3.1 0 3.4.1 6.6 2.5 9 2.3 2.3 5.2 4.6 8.8 4.7 4.3 0 8.1-3.1 9.6-4.5 1.5-1.5 3-2.8 3.7-4.8l.3-1.2.1-.4c0-.1 0-.3.1-.8 0-.1.1-.2.1-.3.2-.4.2-.9.2-1.5 0-.4-.1-.9-.3-1.4 0-3.5-.4-8.3-1.9-9.8l-.1-.1v-.5l-.6-6.4c0-.7 0-1.6-.5-2.3.1-.4.1-.8.1-1.1v-.3l.1-4.4c0-.4-.1-.7-.3-1 .1-.3.1-.7.1-1l-.1-2.4c0-1.2-1.4-3.4-3.3-3.4-.6 0-1.1.3-1.6.6v.1c0-.7-.2-1.5-.5-2.1-.4-.5-1.1-1-2-1zm-7 8.6s-.1-.1-.1-.6l.1-2s0-.2.1-.4c.3-.8 1-1.7 1.6-1.7.4 0 .8.3 1 .5.2.2.3.4.4.6.1.3.2.5.2.6l-.1 2.5c0 .2 0 .4-.1.5v.1l-.1.1V9c-.5.2-1.8.2-2.2-.1 0-.2-.3-.2-.4 0l-.1.1-.3-.4zM2.1 28.2l-.5-1.5c-.2-.6-.2-1.5 0-2.1.1-.3.3-.7.7-.9l.4-.1c.4-.1.9-.1 1.3.1.5.3.9.7 1 1.2l.7 2.3c0 .1.1.2.1.4h-.1c-1 .4-1.9.7-2.4 1.5 0 .1-.1.2-.1.3-.1.2-.1.3-.1.5-.4-.5-.8-1.1-1-1.7zm14.2 2.3c.3.2.6.3 1 .5 1.1.6 2.4 1.3 3.4 1.6 2.1.6 3.3 1.9 3.8 3V38h-.1c0 .8-.1 1.6-.4 2.3-.6 1.6-1.8 2.8-3.3 4.2-1 1-4.7 4.1-8.5 4.1-3.1 0-5.5-2.1-7.7-4.3-2-2-2.1-4.7-2.1-7.9 0-1.1-.2-2.2-.3-3.3-.1-1-.3-1.9-.3-2.7.7.8 1.6 1.6 2.5 1.8.3.3.7.6 1.2.8.7.3 3.4.2 4.5.1.5.7 1.5 1.7 2.1 2h.1l1.8.6c.1.1.2.2.3.4l-.1.1c-.7.9-1.7 2.2-3.1 5.2l.5.2.5.2c0-.1.1-.2.1-.3 1.3-2.7 2.2-3.8 2.8-4.7.2.2.5.4.8.7.2.2.4.3.5.4.3.3.5.5.8.7v-2.1c-.1-.1-.2-.1-.3-.2-.2-.2-.6-.5-.9-.8l-.4-.4-.4-.4v-.1l-.1-.3-2.2-.7c-.5-.3-1.5-1.4-1.7-1.8l-.3-.4-.8.2c-.7.1-3 .2-3.8.1h-.3c-.5-.2-.8-.6-1-1-.2-.3-.2-.6-.2-.8.2-.3.6-.5 1.2-.7.1-.1.2-.1.3-.2.3-.1.7-.3 1.1-.4l1.2-.6h1.9l.3.4.4-.1c.7-.1 1.8.1 2.7.6l2.5 1.6zm4.9-24.4l.1 2.3V9l-.4.4v.1c-.6 0-1.3 0-1.5-.2-.2-.1-.4-.1-.5.1-.1.2-.1.4.1.5.5.4 1.6.4 2.4.3.1.1.1.1.1.2l-.1 4.4v1l-.5.6.1.1c-.6.1-1.4 0-1.6-.2-.2-.1-.4-.1-.5.1 0 0 0 .1-.1.1l-.5-.5c-.1-.1-.3-.4-.3-1.1l-.1-4.4v-.1 3.2l.1-4.8v-.3c0-.2.1-.5 0-.8-.1-.3 0-.5 0-.7v-.9c0-.2 0-.4.1-.7.2-.6.7-1.3 1.3-1.3.9.1 1.8 1.5 1.8 2zm-3.3 11.1c0-.7-.1-1.3-.2-1.8.2.6.2 1.2.2 1.8zm0-10.5v-.3.3zM16.1 2c.2.4.3 1 .3 1.3v3.5h-.3c-.4.3-1.9.3-2.3 0-.2-.1-.4-.1-.5.1-.1.2-.1.4.1.5.7.6 2.1.6 2.9.3l.1.3v.7l-.1 4.8c0 .3 0 .7-.1.9 0 .1 0 .1-.1.1l-.2.5c-.6.2-1.7.1-2.1-.1-.2-.1-.4-.1-.5.1-.1.2-.1.4.1.5.6.4 2.1.5 2.8.2.1.3.2.9.2 1.5l-.3 6.6c.5.2 1 .6 1.3 1.1.1-.2.2-.3.3-.5l-.1-2.6-.1 2 .3-6.5c.1-.1.2-.2.3-.4l.5-.5c0 .1 0 .3.1.4.6.4 1.9.4 2.7.2.2.3.3.8.3 1.5l.6 5.9.3.3.1.1c.1.1.1.2.2.3 0 0 0 .1.1.1 0 .1.1.2.1.4v.1c0 .2.1.3 0 .5v.4c0 .1 0 .2-.1.3l.2-.2c.7 1.1 1 3.6 1.1 6.1-.8-.8-1.9-1.4-3.3-1.8-.8-.2-2-.9-3.1-1.5-.3-.2-.7-.4-1-.5l-2.4-1.6h-.1c-.9-.5-2.2-.9-3.3-.8-.1 0-.2-.1-.2-.1s-.1 0-.1-.1l-.2-.1H7.9l-.2.1c-.2.2-.5.3-.7.4v-.1-.1l-.3-1v-.3c.1-.1.2-.3.3-.4v-.1l.6-7.2V17c0-.4 0-.7.1-.9 0-.1.1-.1.1-.2l.4-.4-.2-.2v-.4-.4l.1-4.4v-.4s0-.1.1-.2l.3-.4c0 .1.1.2.1.3.6.4 1.8.4 2.6.2.1.1.1.2.1.5l-.1 4.2c0 .1.1.3.1.4 0 .1-.1.1-.1.2v.4c-.6.2-1.8.2-2.1-.1-.2-.1-.4-.1-.5.1-.1.2-.1.4.1.5.5.4 1.6.4 2.4.3l.1.2c.2.2.1.5.1 1v.5L11 24c0 .2 0 .3-.1.5.4.2.7.5.9.8.1-.3.3-.5.5-.7-.1-.3-.1-.5-.1-.8l.3-6.4v-.5c0-.5 0-1.1.1-1.4 0-.1.1-.2.1-.2l.4-.4-.3-.5s-.2-.3-.1-1.5l.1-4.2v-.2c0-.3 0-.6.1-.7l.3-.5-.4-.4v-3s0-.1.1-.2c.3-.9 1.5-2.1 2.2-2.1.4-.1.7 0 1 .4z"/></svg>
