<svg width="130" height="18" viewBox="0 0 130 18" xmlns="http://www.w3.org/2000/svg"><title>logo/search-by-algolia/master</title><desc>Created with Sketch.</desc><defs><linearGradient x1="-37.75%" y1="134.936%" x2="130.239%" y2="-27.7%" id="a"><stop stop-color="#00AEFF" offset="0%"/><stop stop-color="#3369E7" offset="100%"/></linearGradient></defs><g fill="none"><path d="M59.399.022h13.299c1.309 0 2.377 1.057 2.377 2.364v13.234c0 1.302-1.063 2.364-2.377 2.364h-13.299c-1.309 0-2.377-1.057-2.377-2.364v-13.239c0-1.302 1.063-2.359 2.377-2.359z" fill="url(#a)"/><path d="M66.257 4.56c-2.815 0-5.1 2.272-5.1 5.078 0 2.806 2.284 5.072 5.1 5.072 2.815 0 5.1-2.272 5.1-5.078 0-2.806-2.279-5.072-5.1-5.072zm0 8.652c-1.983 0-3.593-1.602-3.593-3.574 0-1.972 1.61-3.574 3.593-3.574 1.983 0 3.593 1.602 3.593 3.574 0 1.972-1.605 3.574-3.593 3.574zm0-6.418v2.664c0 .076.082.131.153.093l2.377-1.226c.055-.027.071-.093.044-.147-.493-.861-1.408-1.449-2.465-1.487-.055 0-.11.044-.11.104zm-3.33-1.956l-.312-.311c-.307-.305-.8-.305-1.106 0l-.372.37c-.307.305-.307.795 0 1.101l.307.305c.049.049.121.038.164-.011.181-.245.378-.479.597-.697.225-.223.455-.42.707-.599.055-.033.06-.109.016-.158zm5.001-.806v-.616c0-.43-.351-.779-.783-.779h-1.824c-.433 0-.783.349-.783.779v.632c0 .071.066.12.137.104.509-.147 1.046-.223 1.588-.223.52 0 1.035.071 1.534.207.066.016.131-.033.131-.104z" fill="#fff"/><path d="M102.162 13.762c0 1.455-.372 2.517-1.123 3.193-.75.676-1.895 1.013-3.44 1.013-.564 0-1.736-.109-2.673-.316l.345-1.689c.783.163 1.819.207 2.361.207.86 0 1.473-.174 1.84-.523.367-.349.548-.866.548-1.553v-.349c-.214.104-.493.207-.838.316-.345.104-.745.158-1.194.158-.592 0-1.128-.093-1.616-.278-.487-.185-.909-.458-1.254-.817-.345-.36-.619-.812-.811-1.351-.192-.539-.29-1.504-.29-2.212 0-.665.104-1.498.307-2.054.208-.556.504-1.035.904-1.433.394-.398.876-.703 1.441-.926.564-.223 1.227-.365 1.945-.365.696 0 1.337.087 1.961.191.624.104 1.156.212 1.588.332v8.456zm10.166-4.206c0 .719-.104 1.264-.318 1.858-.214.594-.515 1.101-.904 1.52-.389.42-.854.746-1.402.975-.548.229-1.391.36-1.813.36-.422-.005-1.26-.125-1.802-.36-.542-.234-1.008-.556-1.397-.975-.389-.42-.69-.926-.909-1.52-.219-.594-.329-1.139-.329-1.858 0-.719.099-1.411.318-1.999.219-.588.526-1.09.92-1.509.394-.42.865-.741 1.402-.97.542-.229 1.139-.338 1.786-.338.646 0 1.243.114 1.791.338.548.229 1.019.55 1.402.97.389.42.69.921.909 1.509.23.588.345 1.28.345 1.999zm4.771 4.713c-3.511.016-3.511-2.822-3.511-3.274l-.005-10.068 2.142-.338v10.003c0 .256 0 1.88 1.375 1.885v1.792zm3.774 0h-2.153v-9.196l2.153-.338v9.534zm-1.079-10.542c.718 0 1.304-.578 1.304-1.291 0-.714-.581-1.291-1.304-1.291-.723 0-1.304.578-1.304 1.291 0 .714.586 1.291 1.304 1.291zm6.431 1.013c.707 0 1.304.087 1.786.262.482.174.871.42 1.156.73.285.311.488.735.608 1.182.126.447.186.937.186 1.476v5.481c-.329.071-.827.153-1.495.251-.668.098-1.419.147-2.251.147-.553 0-1.063-.054-1.517-.158-.46-.104-.849-.272-1.178-.507-.323-.234-.575-.534-.761-.904-.181-.37-.274-.893-.274-1.438 0-.523.104-.855.307-1.215.208-.36.487-.654.838-.883.356-.229.761-.392 1.227-.49.466-.098.953-.147 1.457-.147.236 0 .482.016.745.044.263.027.537.076.833.147v-.349c0-.245-.027-.479-.088-.697-.06-.223-.164-.414-.307-.583-.148-.169-.34-.3-.581-.392-.241-.093-.548-.163-.915-.163-.493 0-.942.06-1.353.131-.411.071-.75.153-1.008.245l-.257-1.749c.268-.093.668-.185 1.183-.278.515-.093 1.068-.142 1.66-.142zm-42.117.054c.707 0 1.304.087 1.786.262.482.174.871.42 1.156.73.29.316.487.735.608 1.182.126.447.186.937.186 1.476v5.481c-.329.071-.827.153-1.495.251-.668.098-1.419.147-2.251.147-.553 0-1.063-.054-1.517-.158-.46-.104-.849-.272-1.178-.507-.323-.234-.575-.534-.761-.904-.181-.37-.274-.893-.274-1.438 0-.523.104-.855.307-1.215.208-.36.487-.654.838-.883.356-.229.761-.392 1.227-.49.466-.098.953-.147 1.457-.147.236 0 .482.016.745.044.257.027.537.076.833.147v-.349c0-.245-.027-.479-.088-.697-.06-.223-.164-.414-.307-.583-.148-.169-.34-.3-.581-.392-.241-.093-.548-.163-.915-.163-.493 0-.942.06-1.353.131-.411.071-.75.153-1.008.245l-.257-1.749c.268-.093.668-.185 1.183-.278.515-.098 1.068-.142 1.66-.142zm8.868 9.474c-3.511.016-3.511-2.822-3.511-3.274l-.005-10.068 2.142-.338v10.003c0 .256 0 1.88 1.375 1.885v1.792zm-87.949-4.044c0 .698-.252 1.246-.757 1.644-.505.397-1.201.596-2.089.596-.888 0-1.615-.138-2.181-.414v-1.214c.358.168.739.301 1.141.397.403.097.778.145 1.125.145.508 0 .884-.097 1.125-.29.242-.193.363-.453.363-.779 0-.294-.111-.542-.333-.747-.222-.204-.68-.446-1.375-.725-.716-.29-1.221-.621-1.515-.994-.294-.372-.44-.82-.44-1.343 0-.655.233-1.171.698-1.547.465-.376 1.09-.564 1.875-.564.752 0 1.5.165 2.245.494l-.408 1.047c-.698-.294-1.321-.44-1.869-.44-.415 0-.73.09-.945.271-.215.181-.322.42-.322.717 0 .204.043.379.129.524.086.145.227.282.424.411.197.129.551.299 1.063.51.577.24.999.464 1.268.671.269.208.465.442.591.704.125.261.188.569.188.924zm3.98 2.24c-.924 0-1.646-.269-2.167-.808-.521-.539-.781-1.281-.781-2.226 0-.97.242-1.733.725-2.288.483-.555 1.148-.833 1.993-.833.784 0 1.404.238 1.858.714.455.476.682 1.132.682 1.966v.682h-3.958c.018.577.174 1.02.467 1.329.294.31.707.465 1.241.465.351 0 .678-.033.98-.099.303-.066.628-.176.975-.33v1.026c-.308.147-.619.251-.935.312-.315.061-.675.091-1.08.091zm7.46-.107l-.252-.827h-.043c-.286.362-.575.608-.865.739-.29.131-.662.196-1.117.196-.584 0-1.039-.158-1.367-.473-.328-.315-.491-.761-.491-1.337 0-.612.227-1.074.682-1.386.455-.312 1.148-.482 2.079-.51l1.026-.032v-.317c0-.38-.089-.663-.266-.851-.177-.188-.452-.282-.824-.282-.304 0-.596.045-.875.134-.279.09-.548.195-.806.317l-.408-.902c.322-.168.675-.296 1.058-.384.383-.088.745-.132 1.085-.132.756 0 1.326.165 1.711.494.385.329.577.847.577 1.552v4.001h-.902zm5.677-6.048c.254 0 .464.018.628.054l-.124 1.176c-.179-.043-.365-.064-.559-.064-.505 0-.914.165-1.227.494-.313.329-.47.757-.47 1.284v3.104h-1.262v-5.94h.988l.167 1.047h.064c.197-.354.454-.636.771-.843.317-.208.658-.312 1.023-.312zm4.125 6.155c-.899 0-1.582-.262-2.049-.787-.467-.525-.701-1.277-.701-2.259 0-.999.244-1.767.733-2.304.489-.537 1.195-.806 2.119-.806.627 0 1.191.116 1.692.349l-.381 1.015c-.534-.208-.974-.312-1.321-.312-1.028 0-1.542.682-1.542 2.046 0 .666.128 1.166.384 1.501.256.335.631.502 1.125.502.562 0 1.094-.14 1.595-.419v1.101c-.226.132-.466.227-.722.285-.256.057-.567.086-.932.086zm8.277-.107h-1.268v-3.652c0-.458-.092-.8-.277-1.026-.184-.226-.477-.338-.878-.338-.53 0-.919.158-1.168.475-.249.317-.373.848-.373 1.593v2.949h-1.262v-8.357h1.262v2.122c0 .34-.021.704-.064 1.09h.081c.172-.286.411-.508.717-.666.306-.158.663-.236 1.072-.236 1.439 0 2.159.725 2.159 2.175v3.873zm7.648-6.048c.741 0 1.319.269 1.732.806.414.537.62 1.291.62 2.261 0 .974-.209 1.732-.628 2.275-.419.542-1.001.814-1.746.814-.752 0-1.336-.27-1.751-.811h-.086l-.231.704h-.945v-8.357h1.262v1.987l-.021.655-.032.553h.054c.401-.591.992-.886 1.772-.886zm2.917.107h1.375l1.208 3.368c.183.48.304.931.365 1.354h.043c.032-.197.091-.436.177-.717.086-.281.541-1.616 1.364-4.004h1.364l-2.541 6.73c-.462 1.235-1.232 1.853-2.31 1.853-.279 0-.551-.03-.816-.091v-.999c.19.043.406.064.65.064.609 0 1.037-.353 1.284-1.058l.22-.559-2.385-5.94zm-3.244.924c-.508 0-.875.149-1.098.448-.224.299-.339.799-.346 1.501v.086c0 .723.115 1.247.344 1.571.229.324.603.486 1.123.486.448 0 .787-.177 1.018-.532.231-.354.346-.867.346-1.536 0-1.35-.462-2.025-1.386-2.025zm-27.28 4.157c.458 0 .826-.128 1.104-.384.278-.256.416-.615.416-1.077v-.516l-.763.032c-.594.021-1.027.121-1.297.298s-.406.448-.406.814c0 .265.079.47.236.615.158.145.394.218.709.218zm-5.812-4.232c-.401 0-.722.127-.964.381s-.386.625-.432 1.112h2.696c-.007-.491-.125-.862-.354-1.115-.229-.252-.544-.379-.945-.379zm75.518 5.265c.657 0 1.145-.038 1.484-.104v-2.168c-.121-.033-.29-.071-.515-.104-.225-.033-.471-.054-.745-.054-.236 0-.477.016-.718.054-.241.033-.46.098-.652.191s-.351.223-.466.392c-.121.169-.175.267-.175.523 0 .501.175.79.493.981.318.191.75.289 1.293.289zm42.111-.06c.657 0 1.145-.038 1.484-.104v-2.168c-.121-.033-.29-.071-.515-.104-.225-.033-.471-.054-.745-.054-.236 0-.477.016-.718.054-.241.033-.46.098-.652.191s-.351.223-.466.392c-.121.169-.175.267-.175.523 0 .501.175.79.493.981.323.196.75.289 1.293.289zm-16.268-2.909c0-.921-.203-1.689-.597-2.223-.394-.539-.948-.806-1.654-.806-.707 0-1.26.267-1.654.806-.394.539-.586 1.302-.586 2.223 0 .932.197 1.558.592 2.098.394.545.948.812 1.654.812.707 0 1.26-.272 1.654-.812.394-.545.592-1.166.592-2.098zm-13.929-.005c0 .893.197 1.885.592 2.299.394.414.904.621 1.528.621.34 0 .663-.049.964-.142.301-.093.542-.202.734-.332v-5.29c-.153-.033-.794-.163-1.413-.18-.778-.022-1.369.294-1.786.801-.411.507-.619 1.395-.619 2.223z" fill="#182359"/></g></svg>